<svg xmlns="http://www.w3.org/2000/svg" viewBox="0 0 500 500" width="500" height="500">
  <g fill="#000000" stroke="#000000" stroke-width="1" stroke-linejoin="round">

    <!-- Top arm -->
    <path d="M250 70
             L262 130
             L280 140
             L258 150
             L262 168
             L250 158
             L238 168
             L242 150
             L220 140
             L238 130
             Z" />

    <!-- Left arm -->
    <path d="M150 195
             L205 182
             L215 188
             L210 192
             L218 198
             L210 204
             L215 210
             L205 216
             L150 203
             L168 198
             Z" />

    <!-- Right arm -->
    <path d="M350 195
             L295 182
             L285 188
             L290 192
             L282 198
             L290 204
             L285 210
             L295 216
             L350 203
             L332 198
             Z" />

    <!-- Center star burst -->
    <path d="M250 165
             L258 188
             L282 198
             L258 206
             L250 232
             L242 206
             L218 198
             L242 188
             Z" />

    <!-- Vertical lower beam -->
    <path d="M244 215
             L248 230
             L246 360
             L250 410
             L254 360
             L252 230
             L256 215
             L250 222
             Z" />

    <!-- Bottom point -->
    <path d="M250 410
             L256 395
             L250 430
             L244 395
             Z" />

    <!-- Thin highlight lines -->
    <g fill="none" stroke="#000000" stroke-width="0.6" opacity="0.6">
      <line x1="250" y1="75" x2="250" y2="160" />
      <line x1="155" y1="198" x2="245" y2="198" />
      <line x1="345" y1="198" x2="255" y2="198" />
      <line x1="248" y1="220" x2="248" y2="400" />
    </g>

  </g>
</svg>
